<svg width="44" height="35" viewBox="0 0 44 35" fill="none" xmlns="http://www.w3.org/2000/svg">
    <path d="M38.375 26.875H44L36.5 34.375L29 26.875H34.625V0.625H38.375V26.875ZM14 25H19.625V19.375H14V25ZM23.375 4.375H21.5V0.625H17.75V4.375H10.25V0.625H6.5V4.375H4.625C2.54375 4.375 0.875 6.04375 0.875 8.125V28.75C0.875 30.8312 2.54375 32.5 4.625 32.5H23.375C25.4562 32.5 27.125 30.8312 27.125 28.75V8.125C27.125 6.04375 25.4562 4.375 23.375 4.375ZM4 28.75V12.5H24V28.75H4Z"
          fill="#839BFF"/>
</svg>
