<svg width="59" height="59" viewBox="0 0 59 59" fill="none" xmlns="http://www.w3.org/2000/svg">
    <path d="M14.8677 3.58038H44.0285V15.1707H14.8677V3.58038ZM9.03554 18.0682C7.48875 18.0682 6.00532 18.6788 4.91157 19.7656C3.81783 20.8524 3.20337 22.3264 3.20337 23.8634V44.1463H14.8677V55.7366H44.0285V44.1463H55.6929V23.8634C55.6929 22.3264 55.0784 20.8524 53.9847 19.7656C52.8909 18.6788 51.4075 18.0682 49.8607 18.0682H9.03554ZM41.1125 52.8391H17.7838V35.4536H41.1125V52.8391ZM46.9446 29.6585C46.3679 29.6585 45.8041 29.4886 45.3245 29.1702C44.845 28.8518 44.4712 28.3992 44.2505 27.8698C44.0298 27.3403 43.9721 26.7577 44.0846 26.1956C44.1971 25.6336 44.4748 25.1173 44.8826 24.712C45.2905 24.3068 45.8101 24.0308 46.3757 23.919C46.9414 23.8072 47.5277 23.8646 48.0606 24.0839C48.5934 24.3032 49.0488 24.6746 49.3693 25.1511C49.6897 25.6276 49.8607 26.1878 49.8607 26.7609C49.8607 27.5294 49.5535 28.2664 49.0066 28.8098C48.4597 29.3532 47.718 29.6585 46.9446 29.6585Z"
          fill="#839BFF"/>
</svg>
