<svg width="67" height="66" viewBox="0 0 67 66" fill="none" xmlns="http://www.w3.org/2000/svg">
    <mask id="mask0_304_60" style="mask-type:luminance" maskUnits="userSpaceOnUse" x="3" y="11" width="61" height="46">
        <path d="M11.2109 13.75V33C11.2109 45.1509 21.123 55 33.3515 55C45.58 55 55.4921 45.1509 55.4921 33V13.75"
              stroke="white" stroke-width="4"/>
        <path d="M5.67578 13.75H61.0272" stroke="white" stroke-width="4" stroke-linecap="round"
              stroke-linejoin="round"/>
        <path d="M33.3515 41.25C35.5536 41.25 37.6654 40.3808 39.2225 38.8336C40.7795 37.2865 41.6543 35.188 41.6543 33C41.6543 30.812 40.7795 28.7135 39.2225 27.1664C37.6654 25.6192 35.5536 24.75 33.3515 24.75C31.1495 24.75 29.0377 25.6192 27.4806 27.1664C25.9236 28.7135 25.0488 30.812 25.0488 33C25.0488 35.188 25.9236 37.2865 27.4806 38.8336C29.0377 40.3808 31.1495 41.25 33.3515 41.25Z"
              fill="white" stroke="white" stroke-width="4" stroke-linejoin="round"/>
    </mask>
    <g mask="url(#mask0_304_60)">
        <g filter="url(#filter0_d_304_60)">
            <path d="M0.140625 0H66.5623V66H0.140625V0Z" fill="#839BFF"/>
        </g>
    </g>
    <defs>
        <filter id="filter0_d_304_60" x="-3.85938" y="0" width="74.4216" height="74" filterUnits="userSpaceOnUse"
                color-interpolation-filters="sRGB">
            <feFlood flood-opacity="0" result="BackgroundImageFix"/>
            <feColorMatrix in="SourceAlpha" type="matrix" values="0 0 0 0 0 0 0 0 0 0 0 0 0 0 0 0 0 0 127 0"
                           result="hardAlpha"/>
            <feOffset dy="4"/>
            <feGaussianBlur stdDeviation="2"/>
            <feComposite in2="hardAlpha" operator="out"/>
            <feColorMatrix type="matrix" values="0 0 0 0 0 0 0 0 0 0 0 0 0 0 0 0 0 0 0.25 0"/>
            <feBlend mode="normal" in2="BackgroundImageFix" result="effect1_dropShadow_304_60"/>
            <feBlend mode="normal" in="SourceGraphic" in2="effect1_dropShadow_304_60" result="shape"/>
        </filter>
    </defs>
</svg>
