<svg width="65" height="50" viewBox="0 0 65 50" fill="none" xmlns="http://www.w3.org/2000/svg">
    <g clip-path="url(#clip0_298_20)">
        <path d="M38.7923 9.375V31.25H6.58787V9.375H38.7923ZM6.58787 3.125C3.03531 3.125 0.146973 5.92773 0.146973 9.375V31.25C0.146973 34.6973 3.03531 37.5 6.58787 37.5H18.3928L17.316 40.625H9.80831C8.027 40.625 6.58787 42.0215 6.58787 43.75C6.58787 45.4785 8.027 46.875 9.80831 46.875H35.5719C37.3532 46.875 38.7923 45.4785 38.7923 43.75C38.7923 42.0215 37.3532 40.625 35.5719 40.625H28.0542L26.9773 37.5H38.7923C42.3449 37.5 45.2332 34.6973 45.2332 31.25V9.375C45.2332 5.92773 42.3449 3.125 38.7923 3.125H6.58787ZM53.2843 3.125C50.6174 3.125 48.4537 5.22461 48.4537 7.8125V42.1875C48.4537 44.7754 50.6174 46.875 53.2843 46.875H59.7252C62.3922 46.875 64.5559 44.7754 64.5559 42.1875V7.8125C64.5559 5.22461 62.3922 3.125 59.7252 3.125H53.2843ZM54.8946 9.375H58.115C59.0006 9.375 59.7252 10.0781 59.7252 10.9375C59.7252 11.7969 59.0006 12.5 58.115 12.5H54.8946C54.0089 12.5 53.2843 11.7969 53.2843 10.9375C53.2843 10.0781 54.0089 9.375 54.8946 9.375ZM53.2843 17.1875C53.2843 16.3281 54.0089 15.625 54.8946 15.625H58.115C59.0006 15.625 59.7252 16.3281 59.7252 17.1875C59.7252 18.0469 59.0006 18.75 58.115 18.75H54.8946C54.0089 18.75 53.2843 18.0469 53.2843 17.1875ZM56.5048 32.8125C57.3589 32.8125 58.178 33.1417 58.782 33.7278C59.3859 34.3138 59.7252 35.1087 59.7252 35.9375C59.7252 36.7663 59.3859 37.5612 58.782 38.1472C58.178 38.7333 57.3589 39.0625 56.5048 39.0625C55.6507 39.0625 54.8315 38.7333 54.2276 38.1472C53.6236 37.5612 53.2843 36.7663 53.2843 35.9375C53.2843 35.1087 53.6236 34.3138 54.2276 33.7278C54.8315 33.1417 55.6507 32.8125 56.5048 32.8125Z"
              fill="white"/>
        <path d="M38.7923 9.25V31.125H6.58787V9.25H38.7923ZM6.58787 3C3.03531 3 0.146973 5.80273 0.146973 9.25V31.125C0.146973 34.5723 3.03531 37.375 6.58787 37.375H18.3928L17.316 40.5H9.80831C8.027 40.5 6.58787 41.8965 6.58787 43.625C6.58787 45.3535 8.027 46.75 9.80831 46.75H35.5719C37.3532 46.75 38.7923 45.3535 38.7923 43.625C38.7923 41.8965 37.3532 40.5 35.5719 40.5H28.0542L26.9773 37.375H38.7923C42.3449 37.375 45.2332 34.5723 45.2332 31.125V9.25C45.2332 5.80273 42.3449 3 38.7923 3H6.58787ZM53.2843 3C50.6174 3 48.4537 5.09961 48.4537 7.6875V42.0625C48.4537 44.6504 50.6174 46.75 53.2843 46.75H59.7252C62.3922 46.75 64.5559 44.6504 64.5559 42.0625V7.6875C64.5559 5.09961 62.3922 3 59.7252 3H53.2843ZM54.8946 9.25H58.115C59.0006 9.25 59.7252 9.95312 59.7252 10.8125C59.7252 11.6719 59.0006 12.375 58.115 12.375H54.8946C54.0089 12.375 53.2843 11.6719 53.2843 10.8125C53.2843 9.95312 54.0089 9.25 54.8946 9.25ZM53.2843 17.0625C53.2843 16.2031 54.0089 15.5 54.8946 15.5H58.115C59.0006 15.5 59.7252 16.2031 59.7252 17.0625C59.7252 17.9219 59.0006 18.625 58.115 18.625H54.8946C54.0089 18.625 53.2843 17.9219 53.2843 17.0625ZM56.5048 32.6875C57.3589 32.6875 58.178 33.0167 58.782 33.6028C59.3859 34.1888 59.7252 34.9837 59.7252 35.8125C59.7252 36.6413 59.3859 37.4362 58.782 38.0222C58.178 38.6083 57.3589 38.9375 56.5048 38.9375C55.6507 38.9375 54.8315 38.6083 54.2276 38.0222C53.6236 37.4362 53.2843 36.6413 53.2843 35.8125C53.2843 34.9837 53.6236 34.1888 54.2276 33.6028C54.8315 33.0167 55.6507 32.6875 56.5048 32.6875Z"
              fill="#839BFF"/>
    </g>
    <defs>
        <clipPath id="clip0_298_20">
            <rect width="64.4089" height="50" fill="white" transform="translate(0.146973)"/>
        </clipPath>
    </defs>
</svg>
