<svg width="84" height="87" viewBox="0 0 84 87" fill="none" xmlns="http://www.w3.org/2000/svg">
<path d="M36.6667 8.66671C36.6667 4.08337 40.4167 0.333374 45.0001 0.333374C49.5834 0.333374 53.3334 4.08337 53.3334 8.66671C53.3334 13.25 49.5834 17 45.0001 17C40.4167 17 36.6667 13.25 36.6667 8.66671ZM74.1668 46.1667V37.8334C67.7501 37.9167 61.2918 34.7084 57.2084 30.2084L51.8334 24.25C50.8334 23.25 50.0001 22.75 49.2084 22.3334C47.7084 21.5417 46.2084 21.0834 44.2084 21.25C42.1668 21.4167 40.4167 22.375 39.0834 23.7917L53.3334 38.0417C58.7084 42.5 66.8751 46.125 74.1668 46.1667ZM36.6667 75.3334C29.7501 75.3334 24.1668 69.75 24.1668 62.8334C24.1668 57.375 27.6668 52.7917 32.5001 51.0417V42.4167C28.813 43.1703 25.3988 44.9087 22.6204 47.447C19.8419 49.9853 17.8029 53.2288 16.72 56.833C15.637 60.4372 15.5506 64.2674 16.4698 67.9167C17.389 71.5661 19.2796 74.8983 21.9407 77.5594C24.6018 80.2205 27.934 82.1111 31.5834 83.0303C35.2328 83.9496 39.063 83.8631 42.6671 82.7802C46.2713 81.6972 49.5148 79.6582 52.0532 76.8797C54.5915 74.1013 56.3298 70.6872 57.0834 67H48.4584C46.7501 71.8334 42.1251 75.3334 36.6667 75.3334ZM6.70841 3.70837L0.791748 9.58337L36.6667 45.4584V54.5C36.6667 59.0834 40.4167 62.8334 45.0001 62.8334H54.0418L77.4168 86.2084L83.2918 80.3334L6.70841 3.70837Z" fill="black"/>
</svg>
